<svg width="418" height="338" viewBox="0 0 418 338" fill="none" xmlns="http://www.w3.org/2000/svg">
<path d="M384.926 128.809C379.632 130.017 381.343 128.99 377.317 133.036C374.519 128.366 376.029 129.675 370.936 127.098C374.519 122.991 373.734 124.843 374.599 119.207C379.612 121.341 377.619 121.18 383.235 120.254C382.772 125.669 382.309 123.736 384.926 128.809Z" fill="#FFEB00"/>
<path d="M257.654 286.414C228.505 306.685 140.455 308.557 85.781 292.675C46.8087 281.361 41.293 268.156 37.2267 252.112C22.5718 193.875 50.9355 91.5325 83.3251 75.2873C115.554 59.1227 217.353 74.2003 239.697 95.4378C262.304 116.977 296.545 259.379 257.654 286.414Z" fill="#4100E9"/>
<path opacity="0.5" d="M208.073 106.288C181.682 215.455 156.217 275.363 142.79 302.257C122.438 300.747 102.57 297.546 85.761 292.675C95.7859 250.18 147.642 155.185 208.073 106.288Z" fill="#000C88"/>
<path d="M189.976 112.148C184.239 116.979 186.694 114.906 177.877 122.314C147.662 117.623 91.0351 115.087 49.3251 126.098C37.6495 104.337 26.0746 85.9582 10.5742 70.4377C13.7145 69.0085 13.5737 69.6124 11.158 68.1831C11.1178 68.163 10.9768 68.3039 13.7548 66.7136C13.8152 66.6733 13.9763 66.8948 12.547 65.5058C12.5067 65.4655 12.3859 65.546 14.6003 64.4187C14.6607 64.3785 14.7613 64.5999 13.3925 62.5869C13.3723 62.5466 13.3522 62.607 13.9763 62.1641C14.0367 62.1239 14.0568 62.2447 13.7347 61.3187C13.6945 61.2784 13.6743 61.3589 16.2711 59.6479C16.3315 59.6076 16.4322 59.7485 15.4659 58.6816C15.4458 58.6413 15.3049 58.6816 18.3647 57.0913C18.4251 57.0511 18.5056 57.2322 17.7004 55.964C17.6803 55.9238 17.6803 56.0244 19.1699 55.0179C19.2303 54.9776 19.4316 55.2595 17.2776 52.5821C53.8947 31.8479 118.05 8.45646 176.267 0.0218585C177.092 -0.159314 176.146 7.04735 189.976 112.148Z" fill="white"/>
<path d="M173.551 3.2006C173.933 4.24737 174.074 3.98568 172.906 4.0662C169.162 9.30008 169.927 8.61565 168.961 8.43448C164.955 13.6482 165.337 12.5612 166.344 13.5878L162.439 14.7554C162.861 19.5263 163.445 17.1912 159.439 25.2433C155.232 25.6459 155.292 25.1024 158.614 26.9544L157.929 31.5441L67.4034 51.7348C45.7835 85.2316 47.8569 82.8965 34.0274 100.068C11.6223 65.3831 7.13325 72.1268 12.9912 69.3287C10.7768 67.8189 10.2333 68.7248 13.7763 66.7319C13.736 66.6916 13.7561 66.7117 12.5081 65.5442C12.5886 65.5039 12.347 65.6247 14.6217 64.4572C12.0853 61.035 14.501 63.6117 13.7159 61.3571C16.7958 59.3038 16.6147 60.0084 15.4471 58.6999C15.5276 58.6596 16.3127 58.2369 18.4063 57.0895C18.3861 57.0693 17.7017 56.0024 17.7017 55.9823C19.6745 54.6738 19.8355 55.7005 17.3192 52.5601C53.8557 31.8863 117.991 8.45461 176.308 -0.00012207C174.758 1.79148 173.551 3.2006 173.551 3.2006Z" fill="#DEE6F1"/>
<path d="M177.897 122.312C177.897 122.312 105.911 111.159 49.3452 126.096C25.9941 82.5945 10.5742 70.4559 10.5742 70.4559C45.7016 54.3718 114.104 29.833 157.948 30.8999L177.897 122.312Z" fill="#A0B5D0"/>
<path d="M188.507 122.895L173.469 162.512C165.417 162.794 132.746 164.303 125.136 166.981C53.5328 133.444 0.952393 132.699 0.952393 132.699C14.5404 105.422 15.4059 109.307 13.3929 107.214C15.0436 105.724 15.0638 106.308 13.5339 105.08L16.6138 101.698L14.6813 100.289L17.1573 97.4305L15.0839 95.9006C35.1941 70.6572 75.1729 24.2568 102.57 2.41541C130.068 32.5908 171.054 85.0504 188.507 122.895Z" fill="white"/>
<path d="M95.3831 15.3204C84.5932 26.3116 85.7206 24.6206 86.6063 25.5869C80.0639 37.1618 81.2717 35.8735 80.0438 35.1085C72.7969 44.6503 73.6826 42.4762 74.2463 45.7776C70.4819 43.9457 81.7951 38.2287 0.931641 132.7C5.8837 122.776 14.2781 108.182 14.2781 108.182C13.0904 106.954 13.0098 107.537 14.6807 106.048C13.1105 104.8 12.8891 105.786 16.593 101.72L14.6605 100.311L17.1365 97.4521L15.0631 95.9222C15.0631 95.9222 66.6974 31.0422 102.55 2.43701L95.3831 15.3204Z" fill="#A0B5D0"/>
<path d="M173.469 162.492C173.469 162.492 133.712 163.941 125.136 166.961C53.5325 133.424 0.952148 132.679 0.952148 132.679C21.324 99.3631 67.4627 51.6945 67.4627 51.6945C119.379 72.0261 173.469 162.492 173.469 162.492Z" fill="#DEE6F1"/>
<path opacity="0.2" d="M16.09 96.7662C16.09 96.7662 70.16 31.7654 95.3833 15.319C76.2595 28.0413 17.1368 97.4104 17.1368 97.4104L16.09 96.7662ZM16.5933 101.678C16.5933 101.678 78.2524 31.0408 86.6065 25.5653C48.1173 57.0693 15.6874 100.913 15.6874 100.913L16.5933 101.678ZM14.6809 106.026C101.141 12.2189 102.932 11.0111 13.5133 105.08L14.6809 106.026ZM11.5405 112.85C46.1848 72.7709 48.1173 71.1403 14.2984 108.14L11.5405 112.85Z" fill="#5A4C97"/>
<path d="M172.603 164.424L123.123 194.459C90.0084 172.255 54.7401 139.583 13.1106 141.375C13.1106 141.375 33.9455 108.703 47.4126 99.8058C60.8798 90.9082 87.6532 91.7134 100.637 94.1693C140.314 101.678 172.603 164.424 172.603 164.424Z" fill="#A0B5D0"/>
<path d="M100.637 94.1492C89.2833 93.2836 86.0826 95.0953 80.4058 99.6045C67.1601 93.646 54.0754 96.1623 47.4324 99.7857C61.5035 90.0829 88.3976 90.8881 100.637 94.1492Z" fill="white"/>
<path d="M174.958 35.389C175.663 38.5898 176.266 41.8307 176.77 45.0717C176.146 41.8509 175.562 38.63 174.958 35.389Z" fill="#DEE6F1"/>
<path opacity="0.4" d="M185.224 116.152C186.372 118.427 187.479 120.681 188.506 122.895L173.468 162.512C167.812 162.713 171.475 168.189 144.742 119.091C137.958 106.61 131.778 95.4579 128.98 91.6734C139.971 100.953 150.942 110.213 161.934 119.493C138.22 79.2328 138.381 82.8764 160.867 107.757C159.095 103.329 157.304 98.88 155.532 94.4514C158.914 97.5514 162.296 100.651 165.678 103.752C122.418 45.7762 122.881 50.1445 175.723 103.993C167.892 87.8285 167.751 90.0428 174.233 93.8877C169.925 49.2789 168.174 50.2049 178.219 84.3258C179.306 71.2411 178.803 58.0356 176.77 45.0918C176.89 45.736 176.548 47.8899 178.44 33.7786C181.863 38.4488 178.803 27.3369 189.975 112.146L185.224 116.152Z" fill="#DEE6F1"/>
<path d="M76.1382 241.966C71.2465 244.644 67.5627 250.461 50.2707 252.052C44.4732 252.595 40.1854 252.595 37.2061 252.132C36.3808 248.891 35.6964 245.509 35.1528 242.007C40.9705 237.558 54.4981 239.128 61.745 237.236C69.8575 235.102 82.1571 231.177 84.6533 233.934C85.237 237.86 81.0299 239.289 76.1382 241.966Z" fill="#000C88"/>
<path d="M149.151 208.671C148.526 204.806 135.442 181.938 130.651 173.121C130.651 173.121 126.383 173.906 124.048 172.879C121.894 174.61 90.1485 185.32 84.2503 186.628C85.1361 190.191 82.1367 214.448 82.177 220.528C82.1971 226.828 69.2734 226.748 69.4747 221.997C69.8169 208.369 66.0928 180.529 68.4682 176.704C71.3468 172.094 101.744 155.829 108.085 152.709C108.085 152.709 115.734 135.296 124.209 135.457C133.992 135.638 141.441 137.47 144.702 146.649C147.258 153.876 157.364 165.25 163.805 188.178C171.596 215.898 149.835 213.12 149.151 208.671Z" fill="#FFEB00"/>
<path opacity="0.5" d="M82.4394 214.75C82.2582 217.206 82.1173 219.219 82.1374 220.528C82.1576 226.849 69.2339 226.748 69.4352 221.997C69.7372 209.899 66.8384 186.669 67.8449 178.878C67.3014 191.56 69.7171 189.628 71.5087 203.256C73.1996 216.3 81.4329 217.83 82.4394 214.75Z" fill="#F9B100"/>
<path d="M59.0477 241.242L54.1963 237.215C72.1928 222.239 63.8387 223.305 69.455 218.716C69.4752 219.883 69.4752 220.99 69.4349 222.017C69.3141 224.574 73.0584 225.781 76.5006 225.359C77.1851 231.659 72.2532 231.438 59.0477 241.242Z" fill="#BEC2CA"/>
<path d="M73.4005 222.379C74.1655 222.561 73.783 223.708 72.8167 225.802C72.2732 227.211 65.2276 233.713 63.9997 235.585C62.7717 237.457 60.3158 241.644 58.7658 241.765C57.2157 241.866 53.0085 239.208 56.6521 236.269C60.2957 233.33 65.7107 229.204 67.6835 223.326C68.0056 222.561 70.9446 221.816 73.4005 222.379Z" fill="#A397D6"/>
<path d="M82.1975 218.716C82.2176 218.011 82.278 217.226 82.3384 216.36C83.8079 217.005 83.3047 218.051 82.1975 218.716Z" fill="#A397D6"/>
<path d="M58.5465 241.396C59.09 236.283 63.3553 233.491 67.5223 231.358C73.9439 228.097 74.9303 217.508 79.8622 218.736C81.8954 219.239 83.1032 218.112 83.2038 217.528C81.9155 224.372 84.4195 223.819 83.7473 232.102C82.7408 234.599 75.9167 235.625 73.9238 236.994C71.9711 238.403 58.1439 245.361 58.5465 241.396Z" fill="#D8E2EF"/>
<path d="M49.6465 239.551C50.2101 237.739 54.2764 235.182 55.9674 236.068C57.6583 236.954 49.6465 239.551 49.6465 239.551Z" fill="#EBF0F9"/>
<path d="M80.1639 237.195C81.9354 236.712 84.6932 235.545 84.6731 233.934C84.653 232.324 84.8676 231.742 83.7604 231.541C82.3268 234.419 77.5201 235.016 74.7734 236.266C71.4959 237.758 70.0301 239.721 64.1739 241.163C60.7472 242.007 60.7961 241.534 58.8392 241.692C59.1799 239.797 57.2034 236.28 55.9672 236.068C52.9947 236.625 51.2689 237.887 50.4976 238.409C49.1417 239.328 48.6286 242.852 49.7471 244.14C53.6633 248.748 63.123 245.81 67.3664 243.022C71.5418 240.278 76.9248 238.073 80.1639 237.195Z" fill="white"/>
<path d="M64.5028 224.151C69.7166 224.715 71.5887 221.856 73.4004 222.379C70.8036 220.91 55.6455 223.185 64.5028 224.151Z" fill="#D8E2EF"/>
<path d="M63.7944 237.131C63.7349 235.986 62.0109 236.075 62.0704 237.22C62.1149 238.364 63.8538 238.275 63.7944 237.131Z" fill="white"/>
<path d="M67.0412 235.082C66.9883 234.064 65.454 234.143 65.507 235.162C65.5599 236.18 67.0941 236.101 67.0412 235.082Z" fill="white"/>
<path d="M70.3286 233.065C70.2711 231.958 68.6039 232.044 68.6614 233.151C68.7189 234.243 70.3861 234.172 70.3286 233.065Z" fill="white"/>
<path d="M73.0945 230.895C73.0434 229.911 71.5615 229.988 71.6126 230.972C71.6637 231.943 73.1456 231.879 73.0945 230.895Z" fill="white"/>
<path d="M75.2908 227.815C75.2382 226.802 73.7111 226.881 73.7638 227.894C73.8033 228.908 75.3435 228.829 75.2908 227.815Z" fill="white"/>
<path d="M76.8457 224.498C76.8011 223.639 75.5068 223.706 75.5514 224.565C75.5849 225.413 76.8904 225.357 76.8457 224.498Z" fill="white"/>
<path d="M62.4089 236.994C61.4829 235.182 60.2348 234.478 58.2017 234.498C59.49 232.787 62.8518 234.619 63.2946 236.632C63.1336 236.612 62.731 236.692 62.4089 236.994Z" fill="white"/>
<path d="M65.7309 235.001C64.7043 233.069 62.9932 232.344 60.6782 232.364C62.1477 230.552 65.9524 232.465 66.4758 234.598C66.2946 234.598 66.1134 234.679 65.7309 235.001Z" fill="white"/>
<path d="M68.9917 233.028C67.2806 230.13 65.0059 230.492 62.6909 230.532C63.939 229.002 68.2469 229.324 69.7365 232.626C69.5554 232.626 69.3541 232.706 68.9917 233.028Z" fill="white"/>
<path d="M71.7902 230.814C68.9518 226.929 65.5901 228.217 64.2212 228.861C65.7511 226.969 69.4551 226.506 72.535 230.411C72.374 230.411 72.1727 230.492 71.7902 230.814Z" fill="white"/>
<path d="M74.1449 228.056C73.8832 227.815 74.2053 227.432 74.3864 227.392C71.85 225.5 66.5356 224.574 65.8311 226.687C67.9447 225.278 71.0851 226.224 74.1449 228.056Z" fill="white"/>
<path opacity="0.5" d="M145.829 202.692C145.548 201.021 143.313 196.391 130.631 173.141C130.631 173.141 126.363 173.926 124.028 172.899C121.633 174.832 88.9411 185.602 84.2306 186.648C84.6131 188.158 84.291 193.392 83.7878 199.371C83.7676 191.6 80.9292 194.399 81.513 190.916C82.0968 187.353 79.9026 186.306 77.0844 183.226C74.2661 180.126 76.2187 178.395 77.8694 179.583C79.5 180.77 79.9227 182.361 85.9618 182.079C92.0009 181.797 93.4301 179.724 94.9198 177.831C96.4296 175.919 97.8991 176.563 104.864 175.677C111.487 174.832 111.97 172.275 110.018 170.202C107.622 168.531 109.716 167.786 113.722 168.994C118.271 170.363 122.096 169.195 116.5 166.417C110.883 163.639 108.468 161.022 117.305 164.404C126.142 167.786 118.935 160.479 110.823 158.023C100.858 155.003 76.3597 171.108 74.2259 172.517C66.1133 177.811 81.0299 166.176 108.105 152.769C108.105 152.769 115.755 135.356 124.23 135.517C129.081 135.618 133.932 136.021 137.858 138.215L136.046 142.583C136.368 144.153 135.865 146.67 133.147 150.716C128.276 158.003 131.336 167.444 132 162.854C132.644 158.285 134.275 155.889 134.315 164.666C134.355 173.463 137.999 178.898 137.858 174.168C137.717 169.437 139.488 167.706 139.569 173.604C139.992 200.639 158.491 175.194 153.278 162.814C150.701 156.715 159.961 174.61 162.417 182.985C170.227 209.738 146.594 207.222 145.829 202.692Z" fill="#F9B100"/>
<path d="M108.024 153.957C106.213 153.192 99.4086 148.864 95.302 148.602C89.4844 151.42 79.7816 138.637 75.4737 133.202C70.7028 124.687 77.2854 118.568 86.183 114.32C90.2292 111.965 92.0208 107.858 93.7721 108.06C93.913 106.308 97.0936 106.832 97.7781 101.839C98.4826 96.706 116.841 93.3443 115.754 114.3C115.714 115.145 115.956 116.011 116.439 116.716C120.505 122.674 120.143 124.587 123.686 127.928C126.464 130.565 133.711 133.102 138.904 138.658C144.702 144.878 127.128 161.767 108.024 153.957Z" fill="#60DB96"/>
<path opacity="0.8" d="M139.388 144.234C134.496 155.446 117.949 158.003 108.005 153.937C106.193 153.172 99.3891 148.844 95.2825 148.582C89.4649 151.4 79.7621 138.617 75.4542 133.182C74.1457 130.847 72.958 127.465 74.7698 123.701C76.8432 123.781 78.7958 123.862 80.205 123.842C84.4726 123.741 88.6194 115.005 89.6863 113.938C90.7532 112.871 92.3838 117.259 92.1422 114.119C92.0215 112.589 92.0013 110.737 92.0617 108.905C92.6857 108.321 93.2092 107.979 93.7527 108.039C92.9475 117.038 98.2417 120.621 98.1209 113.716C97.98 106.811 96.9735 98.6386 103.677 98.2963C112.413 97.8736 116.218 107.436 111.186 119.272C107.723 127.445 112.494 133.846 117.366 131.672C122.237 129.498 122.116 131.149 118.996 136.061C115.876 140.993 119.942 138.96 122.962 138.315C125.981 137.651 127.914 137.671 128.035 142.341C128.155 147.012 137.033 147.897 139.308 144.133C139.328 144.153 139.348 144.173 139.388 144.234Z" fill="#4EB17A"/>
<path d="M92.2226 135.034C85.7809 133.484 73.9644 128.311 77.2457 122.533C79.1178 119.212 82.1373 116.897 86.1433 116.212C92.6252 115.105 86.1231 129.478 92.2226 135.034Z" fill="#C09684"/>
<path d="M89.7466 136.705C72.4144 131.35 72.3741 121.366 82.0367 116.233C80.1847 117.32 78.4334 118.97 77.2054 121.366C73.9644 127.646 85.7608 133.303 92.2428 135.054C92.1623 134.994 91.4577 134.45 90.8135 133.263C92.5045 135.578 92.9071 134.591 89.7466 136.705Z" fill="#60DB96"/>
<path d="M92.2227 135.034C91.0551 134.712 89.7265 134.289 88.3375 133.726C85.2374 125.915 89.0622 124.224 86.1433 116.212C88.5187 115.81 90.5347 116.505 89.9998 129C90.9998 132.5 90.4512 133.424 92.2227 135.034Z" fill="#60DB96"/>
<path d="M29.6571 149.729C29.6571 149.729 21.3232 152.407 14.9016 160.418C17.4179 162.27 18.968 163.237 18.968 163.237C22.1486 153.735 29.6571 149.729 29.6571 149.729Z" fill="#82B1EE"/>
<path d="M54.317 157.298C47.3519 166.558 45.7817 180.851 45.7817 180.851H51.378C51.0962 172.114 51.1364 166.84 54.317 157.298Z" fill="#FFEB00"/>
<path d="M63.0736 142.784C62.1275 147.193 62.4496 149.206 62.4496 149.206C68.851 147.535 65.2275 149.729 63.0736 142.784Z" fill="#FFEB00"/>
<path d="M75.0517 115.125C79.5005 118.728 79.4401 118.024 81.6947 117.843C86.5864 117.46 89.8878 135.155 79.1986 128.512C73.2802 124.828 65.6106 118.89 65.6106 118.89C65.6106 118.89 71.2269 112.025 75.0517 115.125Z" fill="#83716F"/>
<path d="M81.1308 134.289C79.6814 135.497 74.0046 134.712 72.1728 134.37C70.7033 136.544 69.6565 135.739 65.4694 131.531C63.8389 133.182 56.1088 130.646 53.8341 124.566C51.036 117.098 57.9407 108.764 63.6375 108.542C71.3072 108.22 70.039 117.279 72.9981 118.567C75.9573 119.836 80.4665 121.808 81.3925 123.298C82.3185 124.788 82.8217 132.9 81.1308 134.289Z" fill="#C09684"/>
<path d="M57.6386 123.359C57.4172 121.346 55.7061 122.392 53.834 124.566C56.0081 130.364 63.718 133.303 65.4693 131.531C63.5167 133.041 57.9204 125.875 57.6386 123.359Z" fill="#A07E7A"/>
<path d="M72.8772 132.357C71.5486 132.075 71.2466 130.505 71.4278 128.431C71.609 126.378 70.5823 124.949 69.7369 126.298C68.8914 127.646 67.4017 130.002 65.4692 131.511C69.7369 135.799 70.7232 136.484 72.1726 134.35C74.0045 134.672 79.6812 135.457 81.1306 134.269C81.5131 132.84 74.2058 132.639 72.8772 132.357Z" fill="#A07E7A"/>
<path d="M79.1783 120.943C78.3329 123.982 71.0658 121.969 71.9113 118.93C72.7367 115.89 80.0037 117.903 79.1783 120.943Z" fill="#C09684"/>
<path d="M78.7351 134.732C77.8091 135.114 75.4337 134.833 74.3467 134.692C76.5409 133.464 77.0039 133.585 77.3461 132.397C77.6883 131.169 79.1578 131.551 79.641 132.216C80.1241 132.88 79.6812 134.329 78.7351 134.732Z" fill="#83716F"/>
<path d="M79.3994 120.117C75.7759 116.876 71.931 118.185 72.394 120.742C58.484 112.871 56.1891 128.009 56.2092 128.069C56.2092 128.673 57.8599 129.619 59.7522 130.827C56.0482 130.183 52.1026 131.672 49.2441 128.572C47.0902 126.237 51.5792 100.873 66.9991 107.476C73.6421 110.314 81.9962 118.406 79.3994 120.117Z" fill="#494E8A"/>
<path d="M94.6582 74.7046C93.0277 75.7917 90.9945 75.5501 89.8672 73.4767C88.5788 71.0812 87.2704 69.4506 88.1561 68.3032C89.8873 66.0285 91.0146 66.0687 92.162 66.3304C93.0075 65.4044 92.9874 62.6868 94.477 63.0492C94.6582 63.0894 94.7991 63.1901 94.8796 63.2706C96.027 62.6667 96.4699 63.0894 96.4498 64.0356C96.7517 64.0154 97.1543 64.5388 97.1342 65.0018C97.5972 65.0823 97.5167 65.7064 97.5167 67.3369C97.4966 71.1013 96.4699 69.3701 94.6582 74.7046Z" fill="#C09684"/>
<path d="M94.0342 67.96C94.94 63.3501 94.618 63.0079 95.6446 62.9475C95.1816 64.5781 94.4368 67.0138 94.0342 67.96Z" fill="#83716F"/>
<path d="M96.7717 67.2755C97.1139 65.5443 96.9529 64.1955 95.6646 67.4164C95.6646 67.4164 96.1678 65.3228 96.4295 64.0144C96.7314 63.9942 97.1341 64.5176 97.1139 64.9806C97.4763 65.0611 97.3958 65.041 96.7717 67.2755Z" fill="#83716F"/>
<path d="M113.299 107.435C111.89 112.971 106.696 113.575 103.334 110.837C97.698 106.248 101.523 97.9137 102.388 94.874C99.2279 89.7408 98.7247 85.2518 92.8869 77.6022C91.5784 75.871 89.6056 73.8781 89.8472 72.9723C90.1894 71.6638 93.3096 69.9728 95.1616 70.2144C97.4766 70.4962 94.3161 72.8314 96.148 74.2203C106.012 81.6887 113.078 89.7408 113.299 94.3305C113.601 100.692 114.124 104.194 113.299 107.435Z" fill="#C09684"/>
<path d="M113.359 106.872C112.876 112.347 107.179 113.917 103.355 110.817C97.7181 106.228 101.543 97.8937 102.408 94.854C99.248 89.7208 98.7447 85.2317 92.9069 77.5822C90.5114 74.462 87.8542 72.1269 92.0816 73.073C92.9673 75.5289 94.2959 76.2133 96.631 78.9108C113.923 98.8197 103.777 107.717 113.359 106.872Z" fill="#A07E7A"/>
<path d="M94.4773 63.0482C94.3766 63.1891 93.9338 62.4845 93.0883 66.4905C92.424 70.0737 90.8941 68.4028 92.0616 73.0932C92.2428 73.838 92.2629 74.4822 91.9409 75.2471C91.2162 75.066 90.4713 74.5828 89.8674 73.4757C88.5791 71.0802 87.2706 69.4496 88.1564 68.3022C89.8876 66.0275 91.0148 66.0677 92.1623 66.3294C92.9876 65.4034 92.9675 62.6858 94.4773 63.0482Z" fill="#83716F"/>
<path d="M92.1621 66.3293C91.0751 67.6579 90.3302 68.2619 89.9478 68.8658C90.0887 67.8593 90.9945 66.4501 92.1621 66.3293Z" fill="#C09684"/>
<path d="M404.573 202.939C403.184 233.819 359.018 271.684 305.512 299.303C296.654 303.872 287.555 308.16 278.336 312.086C277.712 312.347 277.088 312.609 276.444 312.891C272.438 314.582 268.412 316.192 264.386 317.742C262.936 318.286 261.507 318.829 260.058 319.373C255.206 321.164 250.355 322.835 245.523 324.385C240.33 326.056 235.136 327.586 230.023 328.975C218.79 331.994 207.779 334.249 197.311 335.618C182.938 337.49 169.531 337.671 157.876 335.799C143.483 333.464 131.707 327.989 123.936 318.668C109.523 301.396 117.132 259.364 135.652 212.602C141.268 198.41 147.911 183.795 155.239 169.301C189.964 100.617 240.37 34.73 273.505 31.2475C337.298 24.524 407.734 132.422 404.573 202.939Z" fill="#65DA98"/>
<path opacity="0.4" d="M278.316 312.106C235.317 330.444 190.024 340.993 157.856 335.779C153.568 319.333 154.273 300.591 162.224 288.392C168.585 278.629 176.597 268.181 175.007 256.647C171.625 232.329 144.228 232.994 135.954 213.367C135.833 213.105 135.733 212.843 135.632 212.581C141.248 198.39 147.891 183.775 155.219 169.281C171.967 158.612 195.52 147.883 216.657 113.299C213.999 117.647 235.116 150.258 236.968 157.304C242.826 179.548 232.982 238.61 270.123 299.464C272.176 302.806 275.155 307.113 278.316 312.106Z" fill="#48A471"/>
<path d="M305.492 299.323C296.635 303.893 287.536 308.18 278.316 312.106C277.692 312.367 277.068 312.629 276.424 312.911C272.418 314.602 268.392 316.212 264.366 317.762C259.897 311.904 255.388 305.704 251.664 299.967C251.019 301.417 250.375 303.148 249.791 305.08C248.08 310.556 246.631 317.601 245.524 324.405C240.33 326.076 235.137 327.606 230.023 328.995C218.791 332.015 207.779 334.269 197.312 335.638C183.12 300.913 189.441 226.451 239.585 214.917C239.626 214.896 239.646 214.896 239.686 214.876C239.726 214.856 239.746 214.856 239.787 214.836C240.411 214.574 241.317 214.313 242.464 214.071C253.012 211.857 283.208 211.394 282.161 228.424C282.02 230.719 282.121 232.933 282.423 235.127C282.765 237.563 283.349 239.999 284.154 242.455C288.542 256.164 298.99 271.201 305.492 299.323Z" fill="#4100E9"/>
<path d="M285.744 241.106C285.241 241.549 284.718 241.992 284.154 242.415C276.243 248.454 262.896 252.399 243.189 253.265C221.126 254.231 219.213 244.508 214.684 256.788C213.235 260.733 201.016 314.582 230.023 328.955C218.791 331.974 207.779 334.229 197.312 335.598C183.12 300.873 189.441 226.411 239.585 214.876C239.626 214.856 239.646 214.856 239.686 214.836C239.726 214.816 239.746 214.816 239.787 214.796C240.491 214.494 241.397 214.232 242.464 214.031C251.06 212.44 270.385 214.695 278.356 228.041C279.947 230.739 281.235 232.973 282.443 235.087C283.57 237.1 284.617 239.013 285.744 241.106Z" fill="#000C88"/>
<path d="M276.444 312.911C272.438 314.602 268.412 316.212 264.386 317.762C262.937 318.306 261.507 318.849 260.058 319.393C256.595 314.924 253.214 310.294 249.812 305.08C249.731 304.959 249.63 304.819 249.55 304.678C253.274 293.686 262.011 280.239 272.68 273.798C276.323 269.047 275.075 277.321 271.13 299.142C270.123 304.698 272.78 308.986 276.444 312.911Z" fill="#000C88"/>
<g opacity="0.3">
<path opacity="0.3" d="M344.303 239.133C328.903 239.133 320.771 221.66 328.521 207.911C342.552 183.05 389.214 199.014 372.224 235.007L363.487 230.88C370.412 216.205 362.763 205.073 349.014 205.677C337.721 206.16 332.366 217.091 336.754 225.123C339.311 229.793 346.98 231.343 349.195 226.632C350.765 223.311 349.134 220.372 346.316 222.969L339.754 215.842C344.243 211.696 350.262 211.112 354.711 214.373C364.172 221.318 358.878 239.133 344.303 239.133Z" fill="#48A471"/>
</g>
<g opacity="0.3">
<path opacity="0.3" d="M132.552 279.092L135.089 273.214C145.254 277.602 152.864 272.167 152.119 262.625C151.515 254.875 143.865 251.393 138.39 254.613C135.189 256.506 134.303 261.901 137.665 263.33C140.081 264.357 142.154 263.048 140.222 261.116L144.771 256.606C147.67 259.545 148.214 263.571 146.12 266.651C141.732 273.093 129.794 270.154 129.17 260.532C128.486 249.923 140.322 243.743 149.965 248.756C167.297 257.814 157.292 289.761 132.552 279.092Z" fill="#48A471"/>
</g>
<g opacity="0.3">
<path opacity="0.3" d="M272.277 51.881C269.337 40.0444 288.522 31.2877 293.816 47.4725L289.991 48.7205C287.817 42.0977 282.1 40.7691 277.913 45.0971C274.511 48.5998 276.041 53.6726 279.845 54.9005C282.06 55.6252 284.979 53.7934 284.274 51.6193C283.751 50.0491 282.281 49.6264 282.16 51.3375L278.134 51.0557C278.316 48.4588 279.986 46.5263 282.322 46.2445C287.173 45.6406 290.776 52.4849 286.488 56.7928C281.879 61.4026 273.967 58.6649 272.277 51.881Z" fill="#48A471"/>
</g>
<path d="M277.269 64.2613C288.26 72.4946 299.895 89.1625 301.284 113.238C298.969 113.178 295.265 109.635 295.265 109.635C294.5 121.21 289.689 127.571 289.689 127.571C292.387 135.08 287.515 140.495 294.863 152.855C271.209 142.387 237.35 141.179 228.553 100.536C220.602 63.9593 252.971 46.0836 277.269 64.2613Z" fill="#07003E"/>
<path d="M334.54 142.025C335.184 140.555 334.278 137.576 331.963 136.288C329.648 134.999 328.219 138.28 326.206 141.864C324.193 145.447 325.36 152.029 327.937 150.479C330.494 148.909 333.211 145.024 334.54 142.025Z" fill="#A397D6"/>
<path d="M361.132 126.444C360.327 128.155 357.528 132 356.824 132.523C356.602 132.523 355.636 134.697 337.398 137.676C333.05 138.401 332.667 143.212 329.245 144.742C326.145 146.111 321.817 145.064 322.743 142.266C324.776 136.147 327.293 134.456 332.023 130.087C337.599 124.994 338.968 127.148 346.094 126.041C349.879 125.457 353.301 123.666 354.549 125.457C355.938 127.43 350.241 128.94 347.886 129.524C341.827 131.094 341.625 130.047 354.428 130.269C355.374 129.967 359.058 124.028 361.132 126.444Z" fill="#EDC3B2"/>
<path opacity="0.5" d="M354.65 125.578C354.449 125.236 348.732 127.209 348.369 127.35C346.235 128.115 339.794 131.356 336.372 130.933C343.276 130.973 356.079 128.437 354.65 125.578Z" fill="#E49F98"/>
<path d="M358.797 126.303C357.367 126.645 355.354 129.967 354.428 130.248C343.357 130.067 339.633 130.933 336.774 130.933C337.076 131.034 337.398 131.094 337.76 131.174C334.62 130.611 331.721 129.463 336.754 126.927C334.419 127.551 333.835 128.396 332.023 130.067C327.293 134.436 324.776 136.127 322.743 142.246C321.817 145.064 326.145 146.091 329.245 144.722C329.145 144.179 328.903 143.756 328.44 143.555C326.024 143.434 323.166 128.517 341.887 133.167C341.887 133.167 342.652 134.878 343.659 136.489C348.49 135.563 353.804 134.738 356.824 132.503C356.824 132.463 360.025 126.021 358.797 126.303ZM338.022 131.215C338.082 131.215 338.123 131.235 338.183 131.235C338.123 131.235 338.082 131.235 338.022 131.215Z" fill="#E49F98"/>
<path d="M374.699 57.578C391.709 71.8303 397.245 86.2838 380.336 101.804C364.775 116.097 346.658 110.883 331.218 97.6575C311.933 81.1506 312.658 65.6503 324.655 53.4915C340.417 37.7094 358.092 43.6679 374.699 57.578Z" fill="#475BCF"/>
<path d="M367.412 69.7366C366.446 73.7224 362.078 76.7219 357.891 72.6958C368.721 65.8314 367.533 67.0392 366.607 65.9924C356.522 54.7597 343.961 64.3417 351.308 74.1049C358.475 83.6266 369.506 80.0434 371.881 73.34C372.224 72.2731 372.687 72.9172 367.412 69.7366ZM360.347 67.0392L355.596 70.0587C353.301 66.3346 357.045 64.0599 360.347 67.0392ZM353.06 87.0487L347.826 90.3501C338.002 79.6005 336.271 77.5472 333.533 75.0913L338.445 71.951C343.296 76.279 339.894 74.0445 340.8 71.0652C341.384 69.173 343.377 67.945 344.685 67.9048C350.745 74.5679 349.597 72.3334 346.92 73.5614C341.163 76.1582 347.041 80.4258 353.06 87.0487Z" fill="white"/>
<path d="M383.577 98.5633C368.62 115.171 350.563 112.836 334.036 99.9523C324.575 92.5846 314.49 81.4727 316.281 68.851C316.845 64.9658 322.2 52.022 307.122 90.8937C304.847 96.7717 305.713 102.67 308.914 108.286C315.496 119.861 341.686 142.588 362.279 123.404C364.755 121.129 389.576 91.9203 383.577 98.5633Z" fill="url(#paint0_radial)"/>
<path d="M358.414 127.43C357.528 130.007 355.032 135.603 354.287 136.267C352.818 137.556 346.296 137.596 344.423 136.69C342.149 135.623 346.054 133.51 348.51 133.973C354.469 136.288 352.959 125.88 357.85 126.524C358.293 126.605 358.555 127.028 358.414 127.43Z" fill="#EDC3B2"/>
<path opacity="0.5" d="M355.354 134.536C354.891 135.442 354.508 136.086 354.287 136.267C353.582 136.891 349.878 137.817 345.53 137.012C342.571 136.469 346.718 136.368 348.107 136.126C348.852 136.006 349.717 135.221 350.563 134.254C353.321 133.973 353.381 129.665 355.454 127.47C354.146 129.202 352.676 138.582 355.354 134.536Z" fill="#E49F98"/>
<path d="M354.026 126.504C351.207 136.73 350.422 137.334 346.034 138.401C344.585 138.743 341.867 137.958 339.411 137.918C339.874 136.308 341.404 134.919 343.498 134.798C349.255 134.456 349.134 128.9 351.107 126.484C352.395 124.934 354.267 125.619 354.026 126.504Z" fill="#EDC3B2"/>
<path opacity="0.5" d="M351.207 134.677C350.402 136.368 350.362 137.334 346.034 138.401C345.007 138.643 339.914 137.978 339.471 137.757C339.693 137.133 340.679 134.959 343.497 134.798C349.275 134.456 349.114 128.92 351.106 126.484C350.362 128.115 349.556 131.597 349.214 132.563C347.725 136.569 349.798 137.213 351.207 134.677Z" fill="#E49F98"/>
<path d="M348.127 128.276C347.986 128.94 347.664 129.584 346.758 131.819C345.853 134.053 345.349 135.945 343.517 136.388C341.706 136.831 333.573 140.193 332.365 141.582C332.325 140.072 337.358 133.228 342.551 132.684C342.551 132.684 343.598 131.577 344.222 130.309C346.014 126.645 348.268 127.591 348.127 128.276Z" fill="#EDC3B2"/>
<path opacity="0.5" d="M344.766 129.322C344.162 130.732 344.142 132.503 343.699 133.61C343.236 134.717 339.432 133.771 341.183 132.986C343.438 131.919 341.364 134.456 344.766 129.322Z" fill="#E49F98"/>
<path d="M334.681 141.662C319.986 193.76 327.414 216.487 298.084 186.956C282.302 171.073 292.146 176.81 284.254 181.299C279.162 197.162 280.671 221.318 289.488 237.161C292.286 242.173 255.146 258.579 217.059 240.24C216.637 240.24 201.74 232.833 205.122 228.666C209.43 223.391 224.306 210.126 223.3 203.623C222.273 197.121 209.853 166.503 209.853 166.503C201.942 172.281 184.71 186.311 180.12 191.686C185.032 210.649 193.125 229.39 194.514 231.101C195.903 232.833 194.171 245.434 185.857 239.274C185.133 238.731 153.347 197.645 163.875 182.406C168.847 175.199 196.728 143.031 213.839 132.483C231.211 121.794 262.172 122.599 276.706 129.624C291.139 136.589 306.619 163.302 310.565 170.348C310.786 170.73 314.088 160.021 324.213 138.24C325.039 136.489 323.77 138.743 325.059 141.219C327.011 144.923 333.071 145.205 334.681 141.662Z" fill="white"/>
<path opacity="0.4" d="M284.254 181.279C283.973 182.124 283.731 183.01 283.489 183.916C274.089 191.847 265.835 184.942 255.367 191.827C244.779 198.792 232.499 200 229.641 214.232C226.782 228.464 217.543 240.2 217.543 240.2C216.355 240.341 201.801 232.752 205.142 228.665C209.45 223.391 224.327 210.125 223.32 203.623C222.293 197.121 209.873 166.503 209.873 166.503C206.692 168.818 203.733 171.113 200.975 173.307C202.384 167.771 212.168 153.559 216.375 155.351C220.16 156.961 220.22 161.692 221.85 169.643C223.441 181.883 234.392 187.479 244.135 187.66C257.703 187.902 259.474 179.91 266.922 182.406C270.606 183.654 276.706 184.54 284.254 181.279Z" fill="#B5CFFD"/>
<path opacity="0.4" d="M327.212 143.373C313.584 189.472 327.172 216.648 297.238 186.09C294.601 183.393 291.159 179.729 288.26 176.367C290.797 171.516 287.576 168.174 285.482 161.913C283.006 154.465 301.083 171.093 307.606 186.935C305.854 177.172 319.422 148.507 324.213 138.22C324.092 139.025 324.595 141.461 327.212 143.373Z" fill="#B5CFFD"/>
<path d="M226.118 229.37C224.628 231.081 220.039 228.686 214.161 227.699C213.919 227.8 212.53 228.424 212.792 228.424C214.724 228.323 223.843 231.283 224.045 231.363C224.87 231.725 225.273 232.37 224.769 233.135C222.817 235.973 215.288 231.303 210.698 232.893C212.389 233.416 214.966 234.725 216.214 234.966C218.066 235.329 220.703 236.718 218.851 237.966C216.858 239.335 214.1 237.764 209.732 236.375C207.88 236.919 206.129 236.798 206.129 236.798C202.525 240.2 199.345 243.079 197.312 242.757C194.835 242.374 190.044 241.328 189.481 238.892C188.897 236.436 190.507 231.725 193.285 231.464C194.916 232.531 196.265 232.027 197.13 231.242C207.276 221.982 204.015 223.532 207.759 222.184C209.128 221.68 212.127 220.251 213.275 220.432C215.066 220.694 217.442 222.788 220.985 224.015C221.669 224.257 222.293 224.941 221.649 225.425C221.609 225.485 227.688 227.579 226.118 229.37Z" fill="#EDC3B2"/>
<path d="M221.649 225.445C214.764 223.351 215.65 223.633 209.43 224.217C215.429 221.217 215.731 222.526 221.609 224.418C221.951 224.7 222.112 225.102 221.649 225.445Z" fill="#E49F98"/>
<path d="M226.118 229.37C224.628 231.081 220.039 228.686 214.161 227.699C213.013 228.162 212.631 228.806 209.49 228.847C212.349 227.075 214.483 225.827 219.797 227.639C222.917 228.706 225.092 228.947 226.279 228.464C226.4 228.806 226.36 229.108 226.118 229.37Z" fill="#E49F98"/>
<path d="M224.89 232.953C223.34 236.154 215.328 231.302 210.719 232.913C211.524 233.175 212.832 233.456 206.894 232.571C216.093 228.887 221.508 235.027 224.79 232.873C224.81 232.893 224.85 232.913 224.89 232.953Z" fill="#E49F98"/>
<path d="M218.871 237.986C216.878 239.355 214.12 237.785 209.752 236.396C207.9 236.939 206.149 236.818 206.149 236.818C202.545 240.22 199.365 243.099 197.332 242.777C194.856 242.394 190.065 241.348 189.501 238.912L192.903 237.966C195.48 239.898 197.795 239.898 200.714 238.046C203.632 236.194 202.042 235.55 203.089 235.107C204.136 234.644 209.007 234.926 210.618 235.369C212.228 235.832 216.294 238.59 218.428 238.006C218.589 237.966 218.75 237.946 218.871 237.986Z" fill="#E49F98"/>
<path d="M259.675 126.283C257.743 127.833 260.239 134.093 260.963 136.086C261.688 138.079 260.822 141.461 256.112 141.864C251.401 142.246 239.827 137.677 239.827 137.677L230.265 118.351L238.78 110.863L259.675 126.283Z" fill="#EDC3B2"/>
<path d="M252.106 128.98C250.335 131.094 246.47 140.837 244.115 139.347C240.954 137.374 237.472 131.033 235.881 127.43C243.531 115.07 242.303 124.35 257.884 125.94C255.69 126.162 253.516 127.289 252.106 128.98Z" fill="#E49F98"/>
<path d="M260.943 136.026C260.057 133.187 258.245 127.913 260.419 126.383C259.977 126.303 259.493 126.222 259.01 126.142C257.42 128.195 259.836 133.449 260.943 136.026Z" fill="#E39F98"/>
<path d="M260.5 126.504C251.281 122.861 248.644 117.345 243.893 114.164C239.142 110.984 233.284 119.66 243.571 122.941C248.362 124.471 255.911 126.102 260.5 126.504Z" fill="#D48F7F"/>
<path d="M276.081 103.999C274.169 112.453 271.129 117.083 269.901 121.814C269.559 123.143 269.036 124.511 267.787 125.478C262.372 129.645 237.753 122.458 230.567 105.669C206.974 50.4721 267.083 35.8776 273.142 81.4527C273.867 86.7268 272.86 83.8482 274.773 90.9341C275.699 94.5575 277.108 99.3687 276.081 103.999Z" fill="#EDC3B2"/>
<path d="M275.396 94.4366C274.531 92.9269 272.941 91.9002 272.236 90.3099C271.914 89.5852 271.773 88.7398 271.169 88.2164C270.263 87.391 268.472 87.2904 266.841 90.6119C266.7 82.6805 270.183 83.6468 271.35 81.8149C264.103 83.7676 253.837 75.0914 250.395 70.5017C245.422 76.1986 242.805 85.0962 248.382 87.4917C250.395 88.3573 252.71 87.2099 254.864 87.5521C250.415 92.9671 257.561 96.0068 247.858 101.482C242.161 104.703 241.658 115.09 250.213 123.525C241.678 120.022 234.25 114.265 230.566 105.669C223.138 88.2768 224.004 74.9102 228.895 66.1938C230.606 65.6503 232.479 65.1873 234.492 64.7646C243.067 62.973 248.845 60.195 256.494 64.2412C259.433 62.6509 261.386 62.9327 269.176 68.2672C273.404 76.4401 273.343 84.613 273.665 86.465C274.672 91.4976 276.967 97.0335 275.396 94.4366Z" fill="#E49F98"/>
<path d="M260.963 107.682C260.138 105.086 264.989 106.938 266.318 103.958C266.459 103.636 266.66 102.267 267.103 103.294C268.452 106.354 261.829 110.44 260.963 107.682Z" fill="#E69C89"/>
<path d="M263.903 116.721C260.964 117.003 253.455 112.936 253.435 112.836C259.071 113.299 264.446 112.534 269.177 110.682C268.533 113.278 268.754 116.238 263.903 116.721Z" fill="#E69C89"/>
<path d="M253.435 112.816C266.5 111.547 267.828 110.561 269.842 109.071C268.976 111.326 268.191 113.238 263.883 113.782C259.595 114.386 253.435 112.876 253.435 112.816Z" fill="#D87D6E"/>
<g opacity="0.5">
<path opacity="0.5" d="M265.875 117.284C268.532 118.15 263.62 119.378 261.406 120.425C260.379 118.895 264.325 116.781 265.875 117.284Z" fill="#E49F98"/>
</g>
<path d="M266.338 87.0287C267.666 80.5467 273.061 79.6207 273.263 81.2915C273.404 82.4591 270.122 83.7676 269.116 84.7338C268.129 85.7001 266.338 87.0287 266.338 87.0287Z" fill="#07003E"/>
<path d="M267.828 94.2958C267.385 94.1549 266.962 94.0341 266.52 93.9133C266.942 94.0945 267.385 94.2354 267.828 94.2958Z" fill="#E9BAAA"/>
<path d="M273.003 84.4117C272.983 85.3377 272.882 85.3579 272.681 86.2637C270.366 86.2033 268.453 87.4514 267.145 91.4574C265.655 89.545 266.984 85.2371 273.003 84.4117Z" fill="#07003E"/>
<path d="M266.903 91.357C266.198 84.4523 272.459 82.0568 273.163 88.9413C273.848 95.846 267.587 98.2416 266.903 91.357Z" fill="#07003E"/>
<path d="M268.21 89.082C267.667 90.2898 268.09 92.8464 269.459 89.7262C270.848 86.5053 268.694 87.9748 268.21 89.082Z" fill="white"/>
<path d="M257.763 86.7266C254.381 84.5726 244.799 85.7201 243.853 86.5253C238.538 91.115 257.863 87.0889 257.763 86.7266Z" fill="#07003E"/>
<path d="M247.416 98.1004C244.094 90.3099 253.475 85.9819 255.025 94.5574C256.192 100.979 249.851 103.797 247.416 98.1004Z" fill="#07003E"/>
<path d="M248.12 93.893C247.657 95.1209 248.22 96.4696 248.804 96.7112C249.388 96.9729 249.771 96.0469 250.234 94.819C250.676 93.5709 251.019 92.6046 250.435 92.3631C249.851 92.1014 248.583 92.665 248.12 93.893Z" fill="white"/>
<path d="M246.107 92.6045C246.148 92.3831 246.208 92.0811 246.309 91.5577C251.663 89.3233 253.777 89.2025 255.166 91.135C255.871 92.0006 254.341 91.8597 253.314 91.4973C250.798 90.5713 246.631 93.1682 246.107 92.6045Z" fill="#07003E"/>
<path d="M208.847 154.586C210.135 151.043 211.262 148.486 214.141 147.923C215.792 147.601 217.563 147.883 219.093 148.809C255.509 170.992 249.47 125.779 245.886 109.112C242.766 94.6177 239.988 76.0576 252.57 68.3276C273.646 84.9351 289.126 78.8557 297.259 72.7562C283.631 66.4756 261.045 17.2167 216.275 43.0237C198.983 53.0084 196.165 69.6562 193.528 79.3388C193.528 79.3388 194.977 78.3726 196.406 77.5271C188.414 108.085 195.601 137.717 208.847 154.586Z" fill="#1E155B"/>
<path opacity="0.6" d="M208.847 154.586C210.135 151.043 211.262 148.486 214.141 147.923C215.792 147.601 217.563 147.883 219.093 148.809C255.509 170.992 249.47 125.779 245.886 109.112C242.766 94.6177 239.988 76.0576 252.57 68.3276C273.646 84.9351 289.126 78.8557 297.259 72.7562C283.631 66.4756 261.045 17.2167 216.275 43.0237C198.983 53.0084 196.165 69.6561 193.528 79.3388C193.528 79.3388 194.977 78.3726 196.406 77.5271C188.414 108.085 195.601 137.717 208.847 154.586Z" fill="url(#paint1_radial)"/>
<path opacity="0.1" d="M195.076 123.364C192.298 109.997 192.057 94.1548 196.385 77.5473C194.956 78.3928 193.506 79.359 193.506 79.359C196.163 69.6764 198.962 53.0286 216.254 43.0439C214.844 47.7947 219.313 51.5792 223.581 50.1902C260.117 38.3335 271.35 69.9381 289.045 70.1394C280.047 75.4739 251.723 78.5337 242.141 54.1358C244.114 79.3993 230.808 75.6349 230.244 120.022C230.204 123.887 227.386 123.565 225.332 122.076C219.535 117.949 220.461 112.051 217.944 112.957C216.314 113.54 213.476 123.163 213.918 131.537C214.039 133.711 212.57 134.033 211.764 132.262C206.692 121.21 211 115.332 208.121 111.527C204.799 112.192 206.47 123.082 207.014 126.464C207.336 128.477 209.812 134.254 207.799 135.603C205.584 133.51 200.632 117.949 199.485 106.877C196.506 112.373 195.076 116.56 195.076 123.364Z" fill="white"/>
<path opacity="0.4" d="M171.182 180.715C164.841 191.727 182.757 229.008 192.903 237.946L193.225 239.113C191.816 241.086 189.46 241.932 185.837 239.274C185.112 238.731 153.327 197.645 163.855 182.406C167.961 176.468 184.329 155.286 201.5 142L202.5 144.5L205 149L208.826 154.606C196.707 146.957 175.369 173.448 171.182 180.715Z" fill="#B5CFFD"/>
<g opacity="0.3">
<path opacity="0.3" d="M339.553 28.6306C395.032 28.9325 406.063 65.3282 392.938 111.648C427.885 122.7 423.013 17.5589 339.553 28.6306Z" fill="#DEE6F1"/>
</g>
<g opacity="0.3">
<path opacity="0.3" d="M415.867 61.0606C411.257 53.5318 401.675 29.3352 368.46 26.6579C402.52 25.128 423.275 42.0978 415.867 61.0606Z" fill="#DEE6F1"/>
</g>
<path d="M338.687 22.5914C335.969 28.9123 336.191 26.3759 337.338 33.502C330.494 32.878 332.95 32.3143 326.548 35.5956C325.038 28.8922 326.327 31.0663 321.234 25.9733C327.132 22.4505 325.481 24.3629 328.743 17.9413C333.896 22.4505 331.561 21.4641 338.687 22.5914Z" fill="#FFEB00"/>
<path d="M401.453 137.65C398.735 143.971 398.957 141.435 400.104 148.561C393.26 147.937 395.716 147.373 389.314 150.654C387.805 143.951 389.093 146.125 384 141.032C389.898 137.509 388.248 139.422 391.509 133C396.662 137.509 394.327 136.523 401.453 137.65Z" fill="#FFEB00"/>
<path d="M408.736 27.1935L399.698 29.2669L393.155 35.8495L388.384 27.898L380.111 23.7109L386.21 16.7257L387.619 7.56641L396.155 11.1899L405.314 9.70022L404.489 18.94L408.736 27.1935Z" fill="#FFEB00"/>
<path d="M301.325 55.1624C301.325 53.1493 298.285 53.1493 298.285 55.1624C298.305 57.1754 301.325 57.1754 301.325 55.1624Z" fill="#FFEB00"/>
<defs>
<radialGradient id="paint0_radial" cx="0" cy="0" r="1" gradientUnits="userSpaceOnUse" gradientTransform="translate(341.333 102.272) rotate(-8.18115) scale(54.5298)">
<stop offset="0.0810482" stop-color="#381DB2"/>
<stop offset="0.9176" stop-color="#23116F"/>
</radialGradient>
<radialGradient id="paint1_radial" cx="0" cy="0" r="1" gradientUnits="userSpaceOnUse" gradientTransform="translate(211.512 72.1383) rotate(154.97) scale(86.5398)">
<stop stop-color="#8EC4FE" stop-opacity="0.5"/>
<stop offset="1" stop-color="#1E155C" stop-opacity="0"/>
</radialGradient>
</defs>
</svg>
